<svg width="21" height="16" viewBox="0 0 21 16" fill="none" xmlns="http://www.w3.org/2000/svg">
<path fill-rule="evenodd" clip-rule="evenodd" d="M18.375 0H2.625C1.17534 0 0 1.194 0 2.66667V13.3333C0 14.806 1.17534 16 2.625 16H18.375C19.8247 16 21 14.806 21 13.3333V2.66667C21 1.194 19.8247 0 18.375 0ZM14.0542 7.11588L19.6106 2.27863C19.6491 2.40363 19.6875 2.52863 19.6875 2.66667V13.3333C19.6875 13.3957 19.6718 13.4533 19.656 13.5109C19.6484 13.5388 19.6408 13.5666 19.635 13.595L14.0542 7.11588ZM18.5401 1.36342C18.4866 1.34838 18.4331 1.33333 18.375 1.33333H2.625C2.56692 1.33333 2.51339 1.34838 2.45986 1.36342C2.43306 1.37095 2.40627 1.37848 2.37891 1.38412L10.5 8.45575L18.6211 1.38412C18.5937 1.37848 18.5669 1.37095 18.5401 1.36342ZM1.36443 13.5938C1.35861 13.5655 1.35112 13.538 1.34365 13.5105C1.32804 13.453 1.3125 13.3959 1.3125 13.3333V2.66667C1.3125 2.53057 1.3505 2.40715 1.38844 2.28391L1.38844 2.2839L1.39006 2.27863L6.94448 7.11458L1.36443 13.5938ZM2.26321 14.5937C2.38015 14.6302 2.49691 14.6667 2.625 14.6667H18.375C18.5042 14.6667 18.6214 14.6299 18.7382 14.5933L18.7493 14.5899L13.0583 7.98308L10.9268 9.83854C10.8044 9.94662 10.6519 10 10.5 10C10.3481 10 10.1956 9.94662 10.0732 9.8385L7.94165 7.98304L2.25073 14.5898L2.26321 14.5937Z" fill="#666666"/>
</svg>
