<svg width="21" height="22" viewBox="0 0 21 22" fill="none" xmlns="http://www.w3.org/2000/svg">
<path fill-rule="evenodd" clip-rule="evenodd" d="M20.1746 16.0529C18.2869 14.4902 16.5401 12.2856 16.5401 6.78115C16.5401 3.5934 13.8307 1 10.5004 1C7.1696 1 4.45984 3.5934 4.45984 6.78115C4.45984 12.2906 2.71361 14.493 0.824287 16.0543C0.300474 16.491 0 17.1199 0 17.7799C0 18.1431 0.307619 18.4376 0.687059 18.4376H7.20725C7.52531 19.8987 8.88074 21 10.5 21C12.1193 21 13.4748 19.8988 13.7928 18.4376H20.3129C20.6924 18.4376 21 18.1431 21 17.7799C21 17.1146 20.6988 16.4847 20.1746 16.0529ZM10.5 20C9.35433 20 8.37535 19.1662 8 18H13C12.6247 19.1662 11.6457 20 10.5 20ZM2.07658 16.9299C2.04959 16.9521 2.024 16.9755 2 17H19C18.9759 16.9756 18.9503 16.9525 18.9233 16.9305C16.1573 14.675 14.9776 11.7719 14.9776 7.22246C14.9776 4.89417 12.9688 3 10.4996 3C8.03 3 6.02073 4.89417 6.02073 7.22246C6.02073 11.7761 4.84122 14.6793 2.07658 16.9299Z" fill="white"/>
</svg>
