<svg width="21" height="22" viewBox="0 0 21 22" fill="none" xmlns="http://www.w3.org/2000/svg">
<g id="icon-squares">
<path id="Stroke 1" fill-rule="evenodd" clip-rule="evenodd" d="M7.4 9H2.6C1.7168 9 1 8.2832 1 7.4V2.6C1 1.7168 1.7168 1 2.6 1H7.4C8.2832 1 9 1.7168 9 2.6V7.4C9 8.2832 8.2832 9 7.4 9Z" stroke="#D3D3D3" stroke-width="2" stroke-linecap="round" stroke-linejoin="round"/>
<path id="Stroke 1_2" fill-rule="evenodd" clip-rule="evenodd" d="M7.4 21H2.6C1.7168 21 1 20.2832 1 19.4V14.6C1 13.7168 1.7168 13 2.6 13H7.4C8.2832 13 9 13.7168 9 14.6V19.4C9 20.2832 8.2832 21 7.4 21Z" stroke="#D3D3D3" stroke-width="2" stroke-linecap="round" stroke-linejoin="round"/>
<path id="Stroke 1_3" fill-rule="evenodd" clip-rule="evenodd" d="M18.4 9H13.6C12.7168 9 12 8.2832 12 7.4V2.6C12 1.7168 12.7168 1 13.6 1H18.4C19.2832 1 20 1.7168 20 2.6V7.4C20 8.2832 19.2832 9 18.4 9Z" stroke="#D8D8D8" stroke-width="2" stroke-linecap="round" stroke-linejoin="round"/>
<path id="Stroke 1_4" fill-rule="evenodd" clip-rule="evenodd" d="M18.4 21H13.6C12.7168 21 12 20.2832 12 19.4V14.6C12 13.7168 12.7168 13 13.6 13H18.4C19.2832 13 20 13.7168 20 14.6V19.4C20 20.2832 19.2832 21 18.4 21Z" stroke="#D3D3D3" stroke-width="2" stroke-linecap="round" stroke-linejoin="round"/>
</g>
</svg>
