<svg width="22" height="20" viewBox="0 0 22 20" fill="none" xmlns="http://www.w3.org/2000/svg">
<path fill-rule="evenodd" clip-rule="evenodd" d="M21.9561 8.44399C21.8798 8.28427 21.7169 8.18209 21.5367 8.18209H20.1666C19.2955 3.53364 15.1446 0 10.1694 0C4.56234 0 0 4.48643 0 10.0002C0 15.514 4.56187 20 10.1694 20C13.7881 20 17.163 18.0847 18.9768 15.0026C19.2323 14.5677 19.0816 14.0121 18.6388 13.7603C18.1969 13.5085 17.6315 13.6568 17.3764 14.0917C15.8917 16.6146 13.13 18.1823 10.1694 18.1823C5.58181 18.1823 1.8489 14.512 1.8489 10.0012C1.8489 5.4894 5.58181 1.81906 10.1694 1.81906C14.1209 1.81906 17.4316 4.54443 18.2751 8.18255H16.9158C16.7356 8.18255 16.5732 8.28473 16.4964 8.44446C16.4201 8.60418 16.4449 8.79243 16.5601 8.92822L18.8714 11.6554C18.9594 11.759 19.0891 11.8188 19.2267 11.8188C19.3639 11.8188 19.494 11.7585 19.5815 11.6554L21.8929 8.92822C22.008 8.79197 22.0324 8.60371 21.9561 8.44399Z" fill="#D3D3D3"/>
<path fill-rule="evenodd" clip-rule="evenodd" d="M9.50211 5.65443C9.50211 5.29292 9.80182 5 10.1717 5C10.5412 5 10.8413 5.29325 10.842 5.65443V9.6261C11.1179 9.81498 11.302 10.1172 11.3332 10.4631L13.6648 11.7789C13.9855 11.9595 14.095 12.3601 13.9102 12.6726C13.7861 12.8827 13.561 13 13.3298 13C13.2159 13 13.1013 12.9718 12.9955 12.9119L10.6664 11.598C10.5158 11.6673 10.349 11.7087 10.172 11.7087C9.52584 11.7087 9 11.1948 9 10.5632C9 10.1748 9.19935 9.83287 9.50211 9.62544V5.65443ZM9.66959 10.5632C9.66959 10.8332 9.89471 11.0536 10.1717 11.0536C10.4484 11.0536 10.6738 10.8332 10.6738 10.5632C10.6738 10.2928 10.4484 10.0724 10.1717 10.0724C9.89505 10.0724 9.66959 10.2928 9.66959 10.5632Z" fill="#666666"/>
</svg>
