<svg width="20" height="19" viewBox="0 0 20 19" fill="none" xmlns="http://www.w3.org/2000/svg">
<path fill-rule="evenodd" clip-rule="evenodd" d="M12.2603 15.2801L10.7677 16.495V11.749C10.7677 11.3814 10.4059 11.0834 9.95961 11.0834C9.5133 11.0834 9.15153 11.3814 9.15153 11.749V16.4292L7.73972 15.2801C7.42227 15.0217 6.91063 15.0242 6.59693 15.2857C6.28324 15.5472 6.28631 15.9686 6.60372 16.227L8.28409 17.5947C8.74255 17.9741 9.14205 18.4286 10 18.4286C10.858 18.4286 11.2575 17.9741 11.7159 17.5947L13.3963 16.227C13.7137 15.9686 13.7168 15.5472 13.4031 15.2857C13.0893 15.0242 12.5778 15.0217 12.2603 15.2801Z" fill="#666666"/>
<path fill-rule="evenodd" clip-rule="evenodd" d="M19.2579 10.0833C18.848 10.0833 18.5158 10.4414 18.5158 10.8832C18.5158 11.7654 17.85 12.4831 17.0316 12.4831H13.4694C13.0595 12.4831 12.7273 12.8412 12.7273 13.283C12.7273 13.7248 13.0595 14.083 13.4694 14.083H17.0316C18.6684 14.083 20 12.6475 20 10.8832C20 10.4414 19.6678 10.0833 19.2579 10.0833Z" fill="#D3D3D3"/>
<path fill-rule="evenodd" clip-rule="evenodd" d="M11.9864 10.3776C12.107 10.4537 12.2421 10.4901 12.3756 10.4901C12.6122 10.4901 12.844 10.3758 12.9816 10.1663C13.41 9.51417 13.6364 8.77019 13.6364 8.01484C13.6364 5.9128 12.0051 4.20264 10 4.20264C7.99493 4.20264 6.36365 5.9128 6.36365 8.01484C6.36365 8.82338 6.5724 9.54813 6.9841 10.1689C7.20088 10.4957 7.64692 10.5884 7.98028 10.3759C8.31367 10.1634 8.40822 9.7261 8.19144 9.39924C7.93423 9.01135 7.80379 8.54562 7.80379 8.01484C7.80379 6.69134 8.78899 5.61456 10 5.61456C11.211 5.61456 12.1962 6.69134 12.1962 8.01484C12.1962 8.4985 12.0492 8.97813 11.7708 9.40181C11.5555 9.72966 11.652 10.1665 11.9864 10.3776Z" fill="#666666"/>
<path fill-rule="evenodd" clip-rule="evenodd" d="M16.3636 8.69376C16.8657 8.69376 17.2727 8.29161 17.2727 7.79555C17.2727 7.29948 16.8657 6.89734 16.3636 6.89734C15.8615 6.89734 15.4545 7.29948 15.4545 7.79555C15.4545 8.29161 15.8615 8.69376 16.3636 8.69376Z" fill="#666666"/>
<path fill-rule="evenodd" clip-rule="evenodd" d="M3.63639 8.69376C4.13846 8.69376 4.54548 8.29161 4.54548 7.79555C4.54548 7.29948 4.13846 6.89734 3.63639 6.89734C3.13431 6.89734 2.72729 7.29948 2.72729 7.79555C2.72729 8.29161 3.13431 8.69376 3.63639 8.69376Z" fill="#666666"/>
<path fill-rule="evenodd" clip-rule="evenodd" d="M16.875 1.50806H3.125C1.40188 1.50806 0 2.70829 0 4.18357V11.4075C0 12.8827 1.40188 14.083 3.125 14.083H6.875C7.30648 14.083 7.65625 13.7835 7.65625 13.4141C7.65625 13.0447 7.30648 12.7452 6.875 12.7452H3.125C2.26344 12.7452 1.5625 12.1451 1.5625 11.4075V4.18357C1.5625 3.44593 2.26344 2.84581 3.125 2.84581H16.875C17.7366 2.84581 18.4375 3.44593 18.4375 4.18357V8.06307C18.4375 8.43249 18.7873 8.73194 19.2188 8.73194C19.6502 8.73194 20 8.43249 20 8.06307V4.18357C20 2.70829 18.5981 1.50806 16.875 1.50806Z" fill="#D3D3D3"/>
</svg>
