<svg width="21" height="18" viewBox="0 0 21 18" fill="none" xmlns="http://www.w3.org/2000/svg">
<path fill-rule="evenodd" clip-rule="evenodd" d="M19.7678 3.51376V4.86073C20.4602 4.9416 21 5.54472 21 6.27496V16.4754C21 17.3162 20.3321 18 19.5108 18H4.84465C2.17335 18 0 15.7381 0 12.9577V4.76691C0 2.1384 2.08875 0 4.65623 0H19.244C20.2124 0 21 0.806514 21 1.79772C21 2.60227 20.4811 3.28494 19.7678 3.51376ZM4.71503 4.23793C4.72321 4.57615 5.01064 4.85122 5.35558 4.85122V4.85138H18.5373V3.59544H5.32995C5.16156 3.59544 5.00455 3.66285 4.88775 3.78538C4.77223 3.9066 4.71087 4.06734 4.71503 4.23793ZM19.5108 16.7403H4.84465C2.85171 16.7403 1.23047 15.0434 1.23047 12.9577V4.76691C1.23047 2.83305 2.76727 1.25972 4.65623 1.25972H19.244C19.5339 1.25972 19.7695 1.501 19.7695 1.79772C19.7695 2.09444 19.5339 2.33572 19.244 2.33572H5.32995C4.82719 2.33572 4.35727 2.53813 4.00703 2.90588C3.65792 3.27215 3.47239 3.75635 3.48489 4.26909C3.50956 5.28474 4.34878 6.1111 5.35558 6.1111H19.6093C19.6976 6.1111 19.7694 6.18458 19.7694 6.27496V8.76831H16.3803C16.0405 8.76831 15.7651 9.05027 15.7651 9.39817V12.689C15.7651 13.0369 16.0405 13.3189 16.3803 13.3189H19.7695V16.4755C19.7695 16.6215 19.6535 16.7403 19.5108 16.7403ZM16.9955 12.0592H19.7695V10.028H16.9955V12.0592Z" fill="#009A3C"/>
</svg>
