<svg width="19" height="19" viewBox="0 0 19 19" fill="none" xmlns="http://www.w3.org/2000/svg">
<path fill-rule="evenodd" clip-rule="evenodd" d="M12.6075 10.0181C13.9512 10.4818 15.1828 11.2478 16.2175 12.2825C18.0118 14.0768 19 16.4625 19 19H17.5156C17.5156 14.5802 13.9198 10.9844 9.5 10.9844C5.08016 10.9844 1.48438 14.5802 1.48438 19H0C0 16.4625 0.988186 14.0768 2.7825 12.2825C3.81722 11.2478 5.0488 10.4818 6.39254 10.0181C4.95332 9.02689 4.00781 7.36799 4.00781 5.49219C4.00781 2.4638 6.47162 0 9.5 0C12.5284 0 14.9922 2.4638 14.9922 5.49219C14.9922 7.36799 14.0467 9.02689 12.6075 10.0181ZM5.49219 5.49219C5.49219 7.70213 7.2901 9.5 9.5 9.5C11.7099 9.5 13.5078 7.70213 13.5078 5.49219C13.5078 3.28225 11.7099 1.48438 9.5 1.48438C7.2901 1.48438 5.49219 3.28225 5.49219 5.49219Z" fill="white"/>
</svg>
