<svg width="9" height="10" viewBox="0 0 9 10" fill="none" xmlns="http://www.w3.org/2000/svg">
<path fill-rule="evenodd" clip-rule="evenodd" d="M4.93512 0.329288L5.95021 2.48003C6.0208 2.62961 6.15728 2.73326 6.31517 2.75721L8.58508 3.10212C8.9827 3.16258 9.14134 3.67337 8.85373 3.96646L7.21123 5.64057C7.09709 5.75698 7.0449 5.92482 7.07193 6.08913L7.4596 8.45305C7.52756 8.86706 7.11192 9.18273 6.75635 8.9874L4.72617 7.8714C4.585 7.79386 4.41622 7.79386 4.27505 7.8714L2.24487 8.9874C1.8893 9.18292 1.47366 8.86706 1.54162 8.45305L1.92929 6.08913C1.95632 5.92482 1.90413 5.75698 1.78999 5.64057L0.147493 3.96646C-0.140118 3.67318 0.0185186 3.16239 0.416142 3.10212L2.68605 2.75721C2.84394 2.73326 2.98042 2.62961 3.05101 2.48003L4.0661 0.329288C4.24369 -0.0474253 4.75734 -0.0474253 4.93512 0.329288Z" fill="#EDBB19"/>
</svg>
