<svg width="11" height="6" viewBox="0 0 11 6" fill="none" xmlns="http://www.w3.org/2000/svg">
<path fill-rule="evenodd" clip-rule="evenodd" d="M0.222117 4.40906H7.86068V5.77271C7.86068 5.83428 7.88257 5.88746 7.9265 5.93251C7.97054 5.97754 8.02262 6 8.08277 6C8.1476 6 8.20085 5.97873 8.24235 5.93609L10.4639 3.66337C10.5054 3.62076 11 3.06622 11 3C11 2.93366 10.5054 2.37921 10.4637 2.3367L8.24936 0.0710458C8.19377 0.0236322 8.13819 0 8.0826 0C8.01788 0 7.9646 0.0212939 7.92303 0.0638816C7.88142 0.106544 7.86063 0.160923 7.86063 0.227242V1.59089H0.222117C0.161962 1.59089 0.109904 1.61336 0.0659422 1.65836C0.0219807 1.70336 0 1.75659 0 1.81814L0 4.18179C0 4.24333 0.0219564 4.29659 0.0659422 4.34157C0.109928 4.38654 0.161962 4.40906 0.222117 4.40906Z" fill="#167B38"/>
</svg>
