<svg width="12" height="6" viewBox="0 0 12 6" fill="none" xmlns="http://www.w3.org/2000/svg">
<path fill-rule="evenodd" clip-rule="evenodd" d="M11.263 1.59094H3.28062V0.227292C3.28062 0.165724 3.25775 0.112539 3.21184 0.0674887C3.16582 0.0224633 3.11139 0 3.04853 0C2.98079 0 2.92514 0.0212688 2.88177 0.0639062L0.560242 2.33663C0.516868 2.37924 0 2.93378 0 3C0 3.06634 0.516868 3.62079 0.560419 3.6633L2.87445 5.92895C2.93254 5.97637 2.99062 6 3.04871 6C3.11635 6 3.17202 5.97871 3.21547 5.93612C3.25895 5.89346 3.28067 5.83908 3.28067 5.77276V4.40911H11.263C11.3259 4.40911 11.3803 4.38664 11.4262 4.34164C11.4721 4.29664 11.4951 4.24341 11.4951 4.18186V1.81821C11.4951 1.75667 11.4722 1.70341 11.4262 1.65843C11.3802 1.61346 11.3259 1.59094 11.263 1.59094Z" fill="#FF2D55"/>
</svg>
