<svg width="19" height="21" viewBox="0 0 19 21" fill="none" xmlns="http://www.w3.org/2000/svg">
<path fill-rule="evenodd" clip-rule="evenodd" d="M8.75119 9.36645C9.03989 9.07742 9.03989 8.60774 8.75119 8.31871C8.46249 8.02968 7.99335 8.02968 7.70465 8.31871L3.78917 12.2387C3.12156 12.9071 2.76068 13.7742 2.76068 14.7135C2.76068 15.6529 3.12156 16.52 3.78917 17.1884C5.16049 18.5613 7.37987 18.5613 8.73314 17.1884L17.5745 8.33677C18.4948 7.41548 19 6.1871 19 4.88645C19 3.58581 18.4948 2.35742 17.5745 1.43613C15.6619 -0.47871 12.5764 -0.47871 10.6638 1.43613L1.84046 10.2697C0.649573 11.4619 0 13.0335 0 14.7135C0 16.3935 0.649573 17.9832 1.84046 19.1574C3.03134 20.3497 4.60114 21 6.2792 21C7.95726 21 9.54511 20.3497 10.7179 19.1574L14.6334 15.2374C14.9221 14.9484 14.9221 14.4787 14.6334 14.1897C14.3447 13.9006 13.8756 13.9006 13.5869 14.1897L9.67142 18.1097C8.76923 19.0129 7.5603 19.5187 6.2792 19.5187C4.9981 19.5187 3.78917 19.0129 2.88699 18.1097C1.98481 17.2065 1.47958 15.9961 1.47958 14.7135C1.47958 13.431 1.98481 12.2206 2.88699 11.3174L11.7104 2.48387C12.3599 1.83355 13.208 1.49032 14.1102 1.49032C15.0123 1.49032 15.8784 1.85161 16.51 2.48387C17.1595 3.13419 17.5024 3.98323 17.5024 4.88645C17.5024 5.78968 17.1415 6.65677 16.51 7.28903L7.66857 16.1406C6.89269 16.9174 5.61159 16.9174 4.81766 16.1406C4.43875 15.7613 4.22222 15.2555 4.22222 14.7135C4.22222 14.1716 4.43875 13.6658 4.81766 13.2865L8.75119 9.36645Z" fill="#6D6D6D"/>
</svg>
