<svg width="12" height="6" viewBox="0 0 12 6" fill="none" xmlns="http://www.w3.org/2000/svg">
<path fill-rule="evenodd" clip-rule="evenodd" d="M0.232115 4.40906H8.2145V5.77271C8.2145 5.83428 8.23736 5.88746 8.28328 5.93251C8.3293 5.97754 8.38372 6 8.44659 6C8.51433 6 8.56997 5.97873 8.61335 5.93609L10.9349 3.66337C10.9782 3.62076 11.4951 3.06622 11.4951 3C11.4951 2.93366 10.9782 2.37921 10.9347 2.3367L8.62067 0.0710458C8.56258 0.0236322 8.50449 0 8.44641 0C8.37877 0 8.3231 0.0212939 8.27965 0.0638816C8.23617 0.106544 8.21445 0.160923 8.21445 0.227242V1.59089H0.232115C0.169252 1.59089 0.11485 1.61336 0.0689102 1.65836C0.0229701 1.70336 0 1.75659 0 1.81814L0 4.18179C0 4.24333 0.0229447 4.29659 0.0689102 4.34157C0.114876 4.38654 0.169252 4.40906 0.232115 4.40906Z" fill="#167B38"/>
</svg>
