<svg width="25" height="21" viewBox="0 0 25 21" fill="none" xmlns="http://www.w3.org/2000/svg">
<path fill-rule="evenodd" clip-rule="evenodd" d="M18.778 1.16893C20.6939 1.94825 22.2099 3.0102 23.3259 4.35449C24.4421 5.69888 25 7.16419 25 8.74993C25 10.3359 24.442 11.8012 23.3258 13.1455C22.2098 14.4898 20.6938 15.5514 18.7779 16.3308C16.8621 17.1103 14.7693 17.4999 12.4999 17.4999C11.849 17.4999 11.1746 17.4635 10.4772 17.3906C8.63572 18.9858 6.49651 20.0887 4.05966 20.6993C3.60401 20.827 3.07393 20.9269 2.46924 21H2.39941C2.26005 21 2.13428 20.9522 2.02267 20.8568C1.91107 20.7611 1.83675 20.6357 1.79951 20.4808V20.4671C1.77166 20.4307 1.76926 20.3759 1.79257 20.3029C1.81583 20.2301 1.82512 20.1846 1.82043 20.1662C1.81583 20.1482 1.83675 20.1047 1.88331 20.0367L1.96702 19.9137C1.96702 19.9137 1.99966 19.8752 2.0647 19.7978C2.12978 19.72 2.16692 19.6792 2.17635 19.6746C2.24139 19.6016 2.38563 19.4441 2.6087 19.2027C2.83205 18.9611 2.99248 18.7881 3.09006 18.6833C3.18774 18.5784 3.33188 18.3983 3.5224 18.1429C3.71322 17.8879 3.86421 17.6554 3.97591 17.4459C4.08752 17.2362 4.21305 16.9673 4.35255 16.6392C4.49211 16.3108 4.613 15.9645 4.71542 15.6C3.25507 14.7889 2.10428 13.7861 1.2625 12.5921C0.420718 11.3981 0 10.1171 0 8.74998C0 7.164 0.557977 5.69888 1.67413 4.35449C2.79023 3.01001 4.30618 1.94825 6.22209 1.16893C8.13799 0.389612 10.2307 0 12.5 0C14.7694 0 16.8622 0.389612 18.778 1.16893ZM17.7903 15.1971C19.4885 14.5201 20.8376 13.6065 21.8377 12.457C22.8375 11.3072 23.3373 10.0647 23.3373 8.72997C23.3373 7.39519 22.8375 6.15297 21.8377 5.00324C20.8375 3.85362 19.4884 2.94018 17.7902 2.26299C16.092 1.58585 14.2671 1.24713 12.3153 1.24713C10.3634 1.24713 8.53849 1.586 6.84013 2.2632C5.14178 2.94034 3.79288 3.85382 2.7928 5.00344C1.79302 6.15317 1.2931 7.39535 1.2931 8.73023C1.2931 9.82139 1.63503 10.8617 2.31917 11.8505C3.00342 12.8395 3.96726 13.6944 5.21109 14.4158L6.45965 15.1463L6.07219 16.5495C5.93587 17.0755 5.33321 17.7518 4.77369 18.3797C4.39026 18.8099 4.0271 19.2175 3.84816 19.5383C5.30247 18.9244 7.83755 17.6162 9.01422 16.5639L9.63136 16.0084L10.4494 16.0958C11.1096 16.1739 11.7315 16.2128 12.315 16.2128C14.2668 16.2128 16.092 15.874 17.7903 15.1971Z" fill="#676767"/>
</svg>
