<svg width="42" height="42" viewBox="0 0 42 42" fill="none" xmlns="http://www.w3.org/2000/svg">
<path fill-rule="evenodd" clip-rule="evenodd" d="M21 42C32.598 42 42 32.598 42 21C42 9.40202 32.598 0 21 0C9.40202 0 0 9.40202 0 21C0 32.598 9.40202 42 21 42Z" fill="#FFD93B"/>
<path fill-rule="evenodd" clip-rule="evenodd" d="M21.0007 34C14.8778 34 9.54266 29.917 8.02731 24.0727C7.90823 23.6127 8.18958 23.145 8.65674 23.0277C9.12129 22.9079 9.59762 23.1875 9.7167 23.6475C11.0358 28.7316 15.6747 32.2825 20.9993 32.2825C26.324 32.2825 30.9642 28.7316 32.282 23.6475C32.3998 23.1875 32.8748 22.9079 33.3433 23.0277C33.8104 23.145 34.0918 23.6127 33.9727 24.0727C32.4587 29.917 27.1235 34 21.0007 34Z" fill="#3E4347"/>
<path fill-rule="evenodd" clip-rule="evenodd" d="M14 22C15.6569 22 17 20.2091 17 18C17 15.7909 15.6569 14 14 14C12.3431 14 11 15.7909 11 18C11 20.2091 12.3431 22 14 22Z" fill="#3E4347"/>
<path fill-rule="evenodd" clip-rule="evenodd" d="M15.8656 16.9261C15.6741 17.0691 15.3592 16.9986 15.1577 16.766C14.9561 16.5334 14.9461 16.2217 15.1376 16.0787C15.3281 15.9291 15.644 15.9996 15.8446 16.2322C16.0471 16.4715 16.0491 16.7774 15.8656 16.9261Z" fill="#5A5F63"/>
<path fill-rule="evenodd" clip-rule="evenodd" d="M28 22C29.6569 22 31 20.2091 31 18C31 15.7909 29.6569 14 28 14C26.3431 14 25 15.7909 25 18C25 20.2091 26.3431 22 28 22Z" fill="#3E4347"/>
<path fill-rule="evenodd" clip-rule="evenodd" d="M28.8656 16.9261C28.6741 17.0691 28.3592 16.9986 28.1577 16.766C27.9561 16.5334 27.9461 16.2217 28.1376 16.0787C28.3281 15.9291 28.643 15.9996 28.8446 16.2322C29.0471 16.4715 29.0491 16.7774 28.8656 16.9261Z" fill="#5A5F63"/>
</svg>
