<svg width="25" height="21" viewBox="0 0 25 21" fill="none" xmlns="http://www.w3.org/2000/svg">
<path fill-rule="evenodd" clip-rule="evenodd" d="M23.5331 4.09938V5.67086C24.3574 5.7652 25 6.46884 25 7.32079V19.2213C25 20.2022 24.2048 21 23.2271 21H5.76744C2.58732 21 0 18.3611 0 15.1173V5.5614C0 2.4948 2.48661 0 5.54314 0H22.9095C24.0623 0 25 0.940933 25 2.09734C25 3.03598 24.3822 3.83243 23.5331 4.09938ZM5.61314 4.94425C5.62286 5.33884 5.96504 5.65976 6.37569 5.65976V5.65995H22.0682V4.19468H6.34518C6.14471 4.19468 5.95779 4.27333 5.81875 4.41628C5.68123 4.5577 5.60818 4.74523 5.61314 4.94425ZM23.2271 19.5303H5.76744C3.39489 19.5303 1.46484 17.5507 1.46484 15.1173V5.5614C1.46484 3.30522 3.29437 1.46967 5.54314 1.46967H22.9095C23.2546 1.46967 23.5352 1.75116 23.5352 2.09734C23.5352 2.44352 23.2546 2.72501 22.9095 2.72501H6.34518C5.74665 2.72501 5.18723 2.96115 4.77028 3.39019C4.35467 3.8175 4.1338 4.38241 4.14867 4.98061C4.17805 6.16553 5.17712 7.12962 6.37569 7.12962H23.3444C23.4495 7.12962 23.535 7.21535 23.535 7.32079V10.2297H19.5004C19.0958 10.2297 18.7679 10.5587 18.7679 10.9645V14.8039C18.7679 15.2097 19.0958 15.5387 19.5004 15.5387H23.5352V19.2215C23.5352 19.3918 23.3971 19.5303 23.2271 19.5303ZM20.2328 14.069H23.5352V11.6994H20.2328V14.069Z" fill="#009A3C"/>
</svg>
