<svg width="42" height="42" viewBox="0 0 42 42" fill="none" xmlns="http://www.w3.org/2000/svg">
<path fill-rule="evenodd" clip-rule="evenodd" d="M21 42C32.598 42 42 32.598 42 21C42 9.40202 32.598 0 21 0C9.40202 0 0 9.40202 0 21C0 32.598 9.40202 42 21 42Z" fill="#FFD93B"/>
<path fill-rule="evenodd" clip-rule="evenodd" d="M14 20C15.6569 20 17 18.2091 17 16C17 13.7909 15.6569 12 14 12C12.3431 12 11 13.7909 11 16C11 18.2091 12.3431 20 14 20Z" fill="#3E4347"/>
<path fill-rule="evenodd" clip-rule="evenodd" d="M15.8656 14.9261C15.6741 15.0691 15.3592 14.9986 15.1577 14.766C14.9561 14.5334 14.9461 14.2217 15.1376 14.0787C15.3281 13.9291 15.644 13.9996 15.8446 14.2322C16.0471 14.4715 16.0491 14.7774 15.8656 14.9261Z" fill="#5A5F63"/>
<path fill-rule="evenodd" clip-rule="evenodd" d="M28 20C29.6569 20 31 18.2091 31 16C31 13.7909 29.6569 12 28 12C26.3431 12 25 13.7909 25 16C25 18.2091 26.3431 20 28 20Z" fill="#3E4347"/>
<path fill-rule="evenodd" clip-rule="evenodd" d="M28.8656 14.9261C28.6741 15.0691 28.3592 14.9986 28.1577 14.766C27.9561 14.5334 27.9461 14.2217 28.1376 14.0787C28.3281 13.9291 28.643 13.9996 28.8446 14.2322C29.0471 14.4715 29.0491 14.7774 28.8656 14.9261Z" fill="#5A5F63"/>
<path fill-rule="evenodd" clip-rule="evenodd" d="M28.125 30.4286H13.125C12.297 30.4286 11.625 29.9806 11.625 29.4286C11.625 28.8766 12.297 28.4286 13.125 28.4286H28.125C28.953 28.4286 29.625 28.8766 29.625 29.4286C29.625 29.9806 28.953 30.4286 28.125 30.4286Z" fill="#333333"/>
</svg>
