<svg width="42" height="42" viewBox="0 0 42 42" fill="none" xmlns="http://www.w3.org/2000/svg">
<path fill-rule="evenodd" clip-rule="evenodd" d="M21 42C32.598 42 42 32.598 42 21C42 9.40202 32.598 0 21 0C9.40202 0 0 9.40202 0 21C0 32.598 9.40202 42 21 42Z" fill="#FFD93B"/>
<path fill-rule="evenodd" clip-rule="evenodd" d="M14 23C15.6569 23 17 21.2091 17 19C17 16.7909 15.6569 15 14 15C12.3431 15 11 16.7909 11 19C11 21.2091 12.3431 23 14 23Z" fill="#3E4347"/>
<path fill-rule="evenodd" clip-rule="evenodd" d="M15.8656 17.9261C15.6741 18.0691 15.3592 17.9986 15.1577 17.766C14.9561 17.5334 14.9461 17.2217 15.1376 17.0787C15.3281 16.9291 15.644 16.9996 15.8446 17.2322C16.0471 17.4715 16.0491 17.7774 15.8656 17.9261Z" fill="#5A5F63"/>
<path fill-rule="evenodd" clip-rule="evenodd" d="M28 23C29.6569 23 31 21.2091 31 19C31 16.7909 29.6569 15 28 15C26.3431 15 25 16.7909 25 19C25 21.2091 26.3431 23 28 23Z" fill="#3E4347"/>
<path fill-rule="evenodd" clip-rule="evenodd" d="M28.8656 17.9261C28.6741 18.0691 28.3592 17.9986 28.1577 17.766C27.9561 17.5334 27.9461 17.2217 28.1376 17.0787C28.3281 16.9291 28.643 16.9996 28.8446 17.2322C29.0471 17.4715 29.0491 17.7774 28.8656 17.9261Z" fill="#5A5F63"/>
<path fill-rule="evenodd" clip-rule="evenodd" d="M31.7036 31.5305C25.8049 25.6506 16.1829 25.6751 10.3185 31.5916C9.5713 32.3451 10.7484 33.497 11.4966 32.7418C16.7401 27.4522 25.2476 27.4197 30.5254 32.6806C31.2783 33.4313 32.4558 32.2801 31.7036 31.5305V31.5305Z" fill="#333333"/>
</svg>
