<svg xmlns="http://www.w3.org/2000/svg" viewBox="0 0 287.66 64.23"><defs><style>.cls-1{fill:#252628;}.cls-2{fill:#101011;}.cls-3{fill:#3c69c7;}.cls-4{fill:#2b56a3;}</style></defs><title>Asset 33</title><g id="Layer_2" data-name="Layer 2"><g id="Layer_2-2" data-name="Layer 2"><path class="cls-1" d="M96.14,58.91h-8.9a6.39,6.39,0,0,1-5.11-2.56L51.61,15.75h9.21a5.78,5.78,0,0,1,4.61,2.31Z"/><polygon class="cls-2" points="77.55 34.13 72.36 43.25 70.86 41.44 77.55 34.13"/><path class="cls-3" d="M50.47,64.22H43.69a2.36,2.36,0,0,1-1.76-3.94l52.13-58A6.79,6.79,0,0,1,99.1,0h9.08Z"/><polygon class="cls-4" points="50.47 64.22 45.73 56.05 42.11 59.78 50.47 64.22"/><path class="cls-1" d="M47.62,28a20.13,20.13,0,0,1-.84,5.85A21.11,21.11,0,0,1,44.44,39a19.67,19.67,0,0,1-3.63,4.23,26.36,26.36,0,0,1-5.58,3.38l15.2,17.61H41.79A9.65,9.65,0,0,1,34.6,61L14.67,38.62l12.72.05a10.23,10.23,0,0,0,7.5-3.14,11.35,11.35,0,0,0,2.26-3.47,10.55,10.55,0,0,0,0-8.06,10.65,10.65,0,0,0-9.76-6.53L4,17.39a4,4,0,0,1-4-4V7.8H27.39a19.43,19.43,0,0,1,7.86,1.61,21,21,0,0,1,6.41,4.35A20.77,20.77,0,0,1,46,20.17,19.26,19.26,0,0,1,47.62,28Z"/><path class="cls-3" d="M50.47,64.22H40.81a7.45,7.45,0,0,1-5.55-2.49L14.64,38.61l9.7,0a8.71,8.71,0,0,1,6.55,3Z"/><polygon class="cls-2" points="30.48 41.18 35.23 46.61 36.68 45.88 30.48 41.18"/><path class="cls-1" d="M122.26,58.65v-43H141a12,12,0,0,1,5.36,1.21,13.8,13.8,0,0,1,4.2,3.18,15,15,0,0,1,2.76,4.48,13.82,13.82,0,0,1,1,5.11,14.38,14.38,0,0,1-2.3,7.86,11.83,11.83,0,0,1-2.66,2.94,10.85,10.85,0,0,1-3.45,1.84L156,58.65h-5.19A4.5,4.5,0,0,1,147,56.53l-8-12.82H129V56.46a2.19,2.19,0,0,1-2.19,2.19ZM129,37.72h11.85a5.47,5.47,0,0,0,2.63-.64,6.17,6.17,0,0,0,2-1.75,8.82,8.82,0,0,0,1.33-2.57,9.8,9.8,0,0,0,.49-3.09,8.4,8.4,0,0,0-.58-3.09A9,9,0,0,0,145.28,24a7.22,7.22,0,0,0-2.18-1.72,5.62,5.62,0,0,0-2.57-.64H129Z"/><path class="cls-1" d="M164.13,18.48v-.67a3.31,3.31,0,0,1,3.32-3.32h0a3.32,3.32,0,0,1,3.33,3.32v.67a3.33,3.33,0,0,1-3.33,3.33h0A3.32,3.32,0,0,1,164.13,18.48Zm0,37.75V27h4.09a2.55,2.55,0,0,1,2.56,2.55V58.65h-4.24A2.41,2.41,0,0,1,164.13,56.23Z"/><path class="cls-1" d="M193.28,59.25A24.13,24.13,0,0,1,185.69,58a19,19,0,0,1-6.5-3.54L180.73,52a2,2,0,0,1,2.81-.64,22.29,22.29,0,0,0,3.94,2,15.75,15.75,0,0,0,5.68,1.06,8.32,8.32,0,0,0,4.69-1.15A3.69,3.69,0,0,0,199.58,50a3,3,0,0,0-1.94-2.91,38.84,38.84,0,0,0-6-2c-2-.53-3.67-1-5.08-1.52a12.75,12.75,0,0,1-3.45-1.69,5.94,5.94,0,0,1-1.94-2.24,7.17,7.17,0,0,1-.6-3.08,9.42,9.42,0,0,1,.94-4.3,9.19,9.19,0,0,1,2.6-3.18,11.73,11.73,0,0,1,3.9-2,17,17,0,0,1,4.84-.67,20,20,0,0,1,6.65,1.09A17.38,17.38,0,0,1,205,30.7l-1.54,2.17a2.29,2.29,0,0,1-3.08.57,14.13,14.13,0,0,0-7.6-2.26,8.07,8.07,0,0,0-4.27,1.06,3.66,3.66,0,0,0-1.72,3.36,3.39,3.39,0,0,0,.36,1.63,3,3,0,0,0,1.18,1.15,9.82,9.82,0,0,0,2.12.88c.87.26,2,.55,3.24.88,2.13.52,4,1,5.53,1.57A15.27,15.27,0,0,1,203,43.55,6.89,6.89,0,0,1,205.26,46a7.38,7.38,0,0,1,.73,3.42,8.55,8.55,0,0,1-3.42,7.17C200.29,58.38,197.2,59.25,193.28,59.25Z"/><path class="cls-1" d="M229.16,59.25a16.81,16.81,0,0,1-6.72-1.3,15.45,15.45,0,0,1-5.17-3.54,16,16,0,0,1-3.33-5.2,17,17,0,0,1-1.18-6.29,17.18,17.18,0,0,1,1.18-6.32,16.39,16.39,0,0,1,3.33-5.27,15.53,15.53,0,0,1,5.17-3.57,17.15,17.15,0,0,1,6.78-1.3,16.36,16.36,0,0,1,6.68,1.33A16.15,16.15,0,0,1,241,31.33a15.13,15.13,0,0,1,3.23,5.15,17,17,0,0,1,1.12,6.14c0,.48,0,.93-.06,1.36s-.08.77-.12,1.06H219.84a10.91,10.91,0,0,0,1,3.81A9.79,9.79,0,0,0,223,51.78a9.18,9.18,0,0,0,3,1.91,9.36,9.36,0,0,0,3.48.66A10.65,10.65,0,0,0,232,54a8.88,8.88,0,0,0,2.39-1,8.55,8.55,0,0,0,1.94-1.54c.18-.19.34-.39.5-.59a2.41,2.41,0,0,1,2.6-.9l3.92,1.13A13.18,13.18,0,0,1,238,57,16.69,16.69,0,0,1,229.16,59.25Zm9.62-18.81a10.73,10.73,0,0,0-1-3.69A9.16,9.16,0,0,0,232.73,32a9.76,9.76,0,0,0-3.57-.67,9.52,9.52,0,0,0-3.54.67,9.33,9.33,0,0,0-2.93,1.84,9,9,0,0,0-2.06,2.88,10.93,10.93,0,0,0-1,3.69Z"/><path class="cls-1" d="M257.34,17.05l11,15.58,11-15.67a3,3,0,0,1,2.44-1.27h5.89L271.93,37.47l15.24,21.18h-5.79a3.18,3.18,0,0,1-2.59-1.35l-10.49-15L257.87,57.22a3.38,3.38,0,0,1-2.75,1.43h-5.76l15.31-21.18L248.88,15.69h5.84A3.21,3.21,0,0,1,257.34,17.05Z"/></g></g></svg>