<svg width="26" height="24" viewBox="0 0 26 24" fill="none" xmlns="http://www.w3.org/2000/svg">
<path fill-rule="evenodd" clip-rule="evenodd" d="M25.9481 10.1328C25.8579 9.94113 25.6654 9.81851 25.4524 9.81851H23.8333C22.8038 4.24036 17.8982 0 12.0184 0C5.39186 0 0 5.38372 0 12.0003C0 18.6168 5.39131 24 12.0184 24C16.2951 24 20.2835 21.7017 22.4271 18.0032C22.7291 17.4812 22.551 16.8145 22.0277 16.5124C21.5055 16.2103 20.8372 16.3881 20.5358 16.9101C18.7811 19.9375 15.5173 21.8188 12.0184 21.8188C6.59669 21.8188 2.18507 17.4144 2.18507 12.0014C2.18507 6.58728 6.59669 2.18287 12.0184 2.18287C16.6884 2.18287 20.601 5.45331 21.5979 9.81906H19.9914C19.7784 9.81906 19.5865 9.94168 19.4958 10.1333C19.4056 10.325 19.4349 10.5509 19.571 10.7139L22.3026 13.9865C22.4066 14.1108 22.5598 14.1826 22.7225 14.1826C22.8846 14.1826 23.0383 14.1102 23.1418 13.9865L25.8734 10.7139C26.0095 10.5504 26.0382 10.3245 25.9481 10.1328Z" fill="#666666"/>
<path fill-rule="evenodd" clip-rule="evenodd" d="M10.6025 6.79759C10.6025 6.357 10.9622 6 11.406 6C11.8495 6 12.2096 6.3574 12.2104 6.79759V11.6381C12.5415 11.8683 12.7624 12.2366 12.7999 12.6582L15.5977 14.2618C15.9826 14.4819 16.114 14.9702 15.8923 15.351C15.7434 15.607 15.4732 15.75 15.1958 15.75C15.0591 15.75 14.9216 15.7157 14.7946 15.6426L11.9996 14.0413C11.819 14.1257 11.6188 14.1762 11.4064 14.1762C10.631 14.1762 10 13.5499 10 12.7801C10 12.3068 10.2392 11.8901 10.6025 11.6373V6.79759ZM10.8035 12.7801C10.8035 13.1093 11.0737 13.3778 11.406 13.3778C11.738 13.3778 12.0086 13.1093 12.0086 12.7801C12.0086 12.4506 11.738 12.182 11.406 12.182C11.0741 12.182 10.8035 12.4506 10.8035 12.7801Z" fill="#666666"/>
</svg>
