<svg width="17" height="17" viewBox="0 0 17 17" fill="none" xmlns="http://www.w3.org/2000/svg">
<path fill-rule="evenodd" clip-rule="evenodd" d="M8.30771 15.5834H2.07691C1.69475 15.5834 1.38462 15.266 1.38462 14.875V2.12502C1.38462 1.73402 1.69479 1.4167 2.07691 1.4167H8.30771C8.69055 1.4167 9 1.10009 9 0.708385C9 0.316681 8.69055 0 8.30771 0H2.07691C0.931837 0 0 0.953441 0 2.12502V14.875C0 16.0466 0.931837 17 2.07691 17H8.30771C8.69055 17 9 16.6834 9 16.2917C9 15.9 8.69055 15.5834 8.30771 15.5834Z" fill="#009A3C"/>
<path fill-rule="evenodd" clip-rule="evenodd" d="M16.7962 8.04227L12.6369 4.18508C12.3688 3.93564 11.9351 3.93888 11.6696 4.19152C11.4042 4.44416 11.407 4.85109 11.6765 5.10052L14.6488 7.85711H6.68407C6.30577 7.85711 6 8.14446 6 8.49996C6 8.85546 6.30577 9.14284 6.68407 9.14284H14.6488L11.6765 11.8994C11.407 12.1489 11.4049 12.5558 11.6696 12.8084C11.8037 12.9357 11.9802 13 12.1567 13C12.3305 13 12.5042 12.9383 12.6369 12.8148L16.7962 8.95765C16.9261 8.8368 17 8.67221 17 8.49993C17 8.32771 16.9268 8.16378 16.7962 8.04227Z" fill="#009A3C"/>
</svg>
