<svg width="19" height="20" viewBox="0 0 19 20" fill="none" xmlns="http://www.w3.org/2000/svg">
<path fill-rule="evenodd" clip-rule="evenodd" d="M12.6075 10.9267C13.9512 11.3904 15.1828 12.1563 16.2175 13.191C18.0118 14.9854 19 17.371 19 19.9086H17.5156C17.5156 15.4887 13.9198 11.8929 9.5 11.8929C5.08016 11.8929 1.48438 15.4887 1.48438 19.9086H0C0 17.371 0.988186 14.9854 2.7825 13.191C3.81722 12.1563 5.0488 11.3904 6.39254 10.9267C4.95332 9.93546 4.00781 8.27656 4.00781 6.40076C4.00781 3.37237 6.47162 0.908569 9.5 0.908569C12.5284 0.908569 14.9922 3.37237 14.9922 6.40076C14.9922 8.27656 14.0467 9.93546 12.6075 10.9267ZM5.49219 6.40076C5.49219 8.61069 7.2901 10.4086 9.5 10.4086C11.7099 10.4086 13.5078 8.61069 13.5078 6.40076C13.5078 4.19082 11.7099 2.39294 9.5 2.39294C7.2901 2.39294 5.49219 4.19082 5.49219 6.40076Z" fill="#666666"/>
</svg>
