<svg width="20" height="22" viewBox="0 0 20 22" fill="#009A3C" xmlns="http://www.w3.org/2000/svg">
<path fill-rule="evenodd" clip-rule="evenodd" d="M12.2602 16.9942L10.7676 18.7053V12.0208C10.7676 11.5031 10.4058 11.0834 9.95948 11.0834C9.51318 11.0834 9.1514 11.5031 9.1514 12.0208V18.6126L7.7396 16.9942C7.42215 16.6302 6.91051 16.6338 6.59681 17.002C6.28312 17.3703 6.28619 17.9639 6.6036 18.3278L8.28397 20.2541C8.74243 20.7885 9.14193 21.4286 9.99989 21.4286C10.8579 21.4286 11.2573 20.7885 11.7158 20.2541L13.3962 18.3278C13.7136 17.9639 13.7167 17.3703 13.403 17.002C13.0892 16.6338 12.5776 16.6302 12.2602 16.9942Z" fill="#009A3C"/>
<path fill-rule="evenodd" clip-rule="evenodd" d="M19.2579 10.0833C18.848 10.0833 18.5158 10.4414 18.5158 10.8832C18.5158 11.7654 17.85 12.4831 17.0316 12.4831H13.4694C13.0595 12.4831 12.7273 12.8412 12.7273 13.283C12.7273 13.7248 13.0595 14.083 13.4694 14.083H17.0316C18.6684 14.083 20 12.6475 20 10.8832C20 10.4414 19.6678 10.0833 19.2579 10.0833Z" fill="#009A3C"/>
<path fill-rule="evenodd" clip-rule="evenodd" d="M11.9863 10.3776C12.1069 10.4537 12.2419 10.4901 12.3754 10.4901C12.6121 10.4901 12.8439 10.3758 12.9815 10.1663C13.4099 9.51417 13.6363 8.77019 13.6363 8.01484C13.6363 5.9128 12.005 4.20264 9.99989 4.20264C7.99481 4.20264 6.36353 5.9128 6.36353 8.01484C6.36353 8.82338 6.57227 9.54813 6.98398 10.1689C7.20075 10.4957 7.6468 10.5884 7.98016 10.3759C8.31355 10.1634 8.4081 9.7261 8.19132 9.39924C7.93411 9.01135 7.80367 8.54562 7.80367 8.01484C7.80367 6.69134 8.78887 5.61456 9.99989 5.61456C11.2109 5.61456 12.1961 6.69134 12.1961 8.01484C12.1961 8.4985 12.049 8.97813 11.7707 9.40181C11.5554 9.72966 11.6519 10.1665 11.9863 10.3776Z" fill="#009A3C"/>
<path fill-rule="evenodd" clip-rule="evenodd" d="M16.3637 8.69376C16.8658 8.69376 17.2728 8.29161 17.2728 7.79555C17.2728 7.29948 16.8658 6.89734 16.3637 6.89734C15.8616 6.89734 15.4546 7.29948 15.4546 7.79555C15.4546 8.29161 15.8616 8.69376 16.3637 8.69376Z" fill="#009A3C"/>
<path fill-rule="evenodd" clip-rule="evenodd" d="M3.63639 8.69376C4.13846 8.69376 4.54548 8.29161 4.54548 7.79555C4.54548 7.29948 4.13846 6.89734 3.63639 6.89734C3.13431 6.89734 2.72729 7.29948 2.72729 7.79555C2.72729 8.29161 3.13431 8.69376 3.63639 8.69376Z" fill="#009A3C"/>
<path fill-rule="evenodd" clip-rule="evenodd" d="M16.875 1.50806H3.125C1.40188 1.50806 0 2.70829 0 4.18357V11.4075C0 12.8827 1.40188 14.083 3.125 14.083H6.875C7.30648 14.083 7.65625 13.7835 7.65625 13.4141C7.65625 13.0447 7.30648 12.7452 6.875 12.7452H3.125C2.26344 12.7452 1.5625 12.1451 1.5625 11.4075V4.18357C1.5625 3.44593 2.26344 2.84581 3.125 2.84581H16.875C17.7366 2.84581 18.4375 3.44593 18.4375 4.18357V8.06307C18.4375 8.43249 18.7873 8.73194 19.2188 8.73194C19.6502 8.73194 20 8.43249 20 8.06307V4.18357C20 2.70829 18.5981 1.50806 16.875 1.50806Z" fill="#009A3C"/>
</svg>
