<svg width="21" height="22" viewBox="0 0 21 22" fill="none" xmlns="http://www.w3.org/2000/svg">
<path fill-rule="evenodd" clip-rule="evenodd" d="M18.1387 7.49003V8.33248C19.7382 8.43376 21.0047 9.74578 21 11.3386V12.6552C21 14.2573 19.7241 15.5693 18.1152 15.666C17.9558 18.0691 16.7503 19.2614 15.7324 19.846C15.01 20.2604 14.283 20.4215 13.8233 20.4859C13.5935 21.3054 12.8289 21.913 11.9189 21.913H10.507C9.4188 21.913 8.53227 21.0384 8.53227 19.9703C8.53227 18.9023 9.4188 18.0322 10.507 18.0322H11.9142C12.7914 18.0322 13.5372 18.5939 13.7952 19.3719C14.7333 19.2199 16.755 18.5524 16.9848 15.6706H16.1968C15.8872 15.6706 15.6339 15.422 15.6339 15.1182V8.8757C15.6339 8.57187 15.8872 8.32327 16.1968 8.32327H17.0036V7.49003C17.0036 3.84859 14.3627 1.10486 10.8541 1.10486H10.1459C6.64194 1.10486 3.99642 3.84859 3.99642 7.49003V8.32327H4.80321C5.1128 8.32327 5.36609 8.57187 5.36609 8.8757V15.1228C5.36609 15.4266 5.1128 15.6752 4.80321 15.6752H3.07237C1.37905 15.6752 0 14.3217 0 12.6598V11.3432C0 9.74578 1.27116 8.43836 2.87067 8.33248V7.49003C2.87067 5.47366 3.59772 3.6 4.91579 2.20972C6.26669 0.782609 8.12419 0 10.1505 0H10.8588C12.8852 0 14.7427 0.782609 16.0936 2.20972C17.4116 3.6 18.1387 5.47366 18.1387 7.49003ZM3.08175 14.5657H4.24972V9.42813H3.08175C2.00759 9.42813 1.13513 10.2844 1.13513 11.3386V12.6552C1.13513 13.7095 2.00759 14.5657 3.08175 14.5657ZM11.9189 20.8082H10.507C10.038 20.8082 9.65802 20.4353 9.65802 19.9749C9.65802 19.5146 10.038 19.1417 10.507 19.1417H11.9189C12.388 19.1417 12.7679 19.5146 12.7679 19.9749C12.7679 20.4353 12.388 20.8082 11.9189 20.8082ZM17.9323 14.5657C19.0065 14.5657 19.8789 13.7095 19.8789 12.6552V11.3386C19.8789 10.2844 19.0065 9.42813 17.9323 9.42813H16.7643V14.5657H17.9323Z" fill="#666666"/>
</svg>
