<svg width="22" height="17" viewBox="0 0 22 17" fill="none" xmlns="http://www.w3.org/2000/svg">
<path fill-rule="evenodd" clip-rule="evenodd" d="M21.77 5.60989L16.2699 0.225216C15.963 -0.075147 15.4655 -0.0750569 15.1587 0.225396C15.0114 0.369628 14.9287 0.565152 14.9286 0.769105V3.07681H9.42854C8.99458 3.07681 8.64279 3.42121 8.64279 3.84607C8.64279 4.27092 8.99458 4.61532 9.42854 4.61532H15.7144C16.1483 4.61532 16.5001 4.27092 16.5001 3.84607V2.626L20.1035 6.15373L16.5001 9.68146V8.46144C16.5001 8.03659 16.1483 7.69219 15.7144 7.69219H7.07136V5.38448C7.07127 4.95963 6.71939 4.61532 6.28548 4.61541C6.0772 4.61545 5.87744 4.69645 5.73012 4.84064L0.230066 10.2253C-0.0766888 10.5257 -0.0766888 11.0126 0.230066 11.313L5.73016 16.6977C5.87748 16.8419 6.07729 16.923 6.28566 16.9231C6.38893 16.9234 6.49127 16.9035 6.58657 16.8646C6.88011 16.7454 7.07145 16.465 7.07136 16.1538V13.8461H12.5715C13.0054 13.8461 13.3572 13.5017 13.3572 13.0769C13.3572 12.652 13.0054 12.3076 12.5715 12.3076H6.28566C5.8517 12.3076 5.49992 12.652 5.49992 13.0769V14.2969L1.89657 10.7692L5.49992 7.24142V8.46144C5.49992 8.88629 5.8517 9.23069 6.28566 9.23069H14.9286V11.5384C14.9287 11.9633 15.2806 12.3076 15.7145 12.3075C15.9228 12.3074 16.1225 12.2264 16.2699 12.0822L21.77 6.69758C22.0767 6.39717 22.0767 5.91025 21.77 5.60989Z" fill="#009A3C"/>
</svg>
