<svg width="32" height="23" viewBox="0 0 32 23" fill="none" xmlns="http://www.w3.org/2000/svg">
<path fill-rule="evenodd" clip-rule="evenodd" d="M26.912 0.684C28.83 0.792 29.772 1.076 30.64 2.62C31.544 4.162 32 6.818 32 11.496V11.502V11.512C32 16.168 31.544 18.844 30.642 20.37C29.774 21.914 28.832 22.194 26.914 22.324C24.996 22.434 20.178 22.5 16.004 22.5C11.822 22.5 7.002 22.434 5.086 22.322C3.172 22.192 2.23 21.912 1.354 20.368C0.46 18.842 0 16.166 0 11.51V11.506V11.5V11.494C0 6.818 0.46 4.162 1.354 2.62C2.23 1.074 3.174 0.792 5.088 0.682C7.002 0.554 11.822 0.5 16.004 0.5C20.178 0.5 24.996 0.554 26.912 0.684ZM22 11.5L12 5.5V17.5L22 11.5Z" fill="#00CC4F"/>
</svg>
