<svg width="29" height="25" viewBox="0 0 29 25" fill="none" xmlns="http://www.w3.org/2000/svg">
<path fill-rule="evenodd" clip-rule="evenodd" d="M7.19442 14.3785L0.512226 12.0079C-0.166471 11.7662 -0.172368 10.8554 0.504396 10.6073L27.9283 0.551497C28.5096 0.337776 29.1095 0.821911 28.9829 1.40225L24.0615 23.9037C23.9455 24.435 23.2902 24.6759 22.8277 24.3563L16.1095 19.7202C15.7015 19.4386 15.1454 19.4537 14.7549 19.7561L11.0302 22.6423C10.5978 22.9784 9.94633 22.7912 9.78083 22.2848L7.19442 14.3785ZM22.4235 5.47122L9.36401 13.1166C8.86346 13.4102 8.62779 13.9848 8.78951 14.5227L10.2015 19.2386C10.3018 19.5728 10.8121 19.5385 10.8607 19.1932L11.2278 16.6071C11.2971 16.1202 11.5414 15.6716 11.9203 15.3364L22.6981 5.81358C22.8997 5.63588 22.6582 5.33422 22.4235 5.47122Z" fill="#00CC4F"/>
</svg>
