<svg width="29" height="18" viewBox="0 0 29 18" fill="none" xmlns="http://www.w3.org/2000/svg">
<path fill-rule="evenodd" clip-rule="evenodd" d="M28.8462 15.8529C28.8111 15.7751 28.7783 15.7106 28.7479 15.6589C28.2448 14.7279 27.2833 13.5851 25.864 12.2302L25.834 12.1991L25.819 12.1839L25.8038 12.1683H25.7886C25.1445 11.5374 24.7366 11.1132 24.5657 10.896C24.2532 10.4823 24.1832 10.0635 24.354 9.63923C24.4747 9.31864 24.928 8.6416 25.7129 7.60719C26.1258 7.05898 26.4528 6.61962 26.6943 6.2886C28.4358 3.90973 29.1909 2.3896 28.9592 1.72761L28.8693 1.57292C28.8088 1.47978 28.6528 1.39458 28.4014 1.31688C28.1495 1.23934 27.8275 1.22652 27.4348 1.27819L23.0864 1.30906C23.0159 1.28341 22.9154 1.2858 22.7843 1.31688C22.6534 1.34796 22.5879 1.36356 22.5879 1.36356L22.5123 1.40241L22.4522 1.44908C22.4018 1.47995 22.3465 1.53423 22.286 1.61182C22.2259 1.68914 22.1756 1.77988 22.1354 1.88329C21.662 3.13472 21.1237 4.29824 20.5196 5.37378C20.1471 6.01512 19.8051 6.57093 19.4927 7.04154C19.1807 7.51199 18.919 7.85861 18.7078 8.08079C18.4962 8.30319 18.3053 8.48136 18.1339 8.61595C17.9627 8.7506 17.832 8.80749 17.7415 8.78668C17.6508 8.76587 17.5654 8.74522 17.4845 8.72457C17.3437 8.63144 17.2304 8.50478 17.145 8.34449C17.0592 8.18419 17.0015 7.98244 16.9713 7.73939C16.9412 7.49618 16.9235 7.28698 16.9184 7.11109C16.9137 6.93542 16.9159 6.68694 16.9261 6.36635C16.9365 6.0456 16.9412 5.82858 16.9412 5.7148C16.9412 5.32173 16.9487 4.89513 16.9637 4.43489C16.9789 3.97466 16.9912 3.61001 17.0015 3.34136C17.0118 3.07245 17.0166 2.78794 17.0166 2.488C17.0166 2.18806 16.9988 1.95284 16.9637 1.78211C16.929 1.6116 16.8757 1.44609 16.8055 1.28564C16.7349 1.12534 16.6316 1.00135 16.496 0.91332C16.3601 0.825403 16.1912 0.755635 15.9902 0.703797C15.4567 0.579746 14.7772 0.51264 13.9517 0.502207C12.0795 0.481559 10.8765 0.605773 10.343 0.874687C10.1316 0.988305 9.94033 1.14355 9.7693 1.33992C9.58806 1.56754 9.56278 1.69175 9.69362 1.71218C10.2977 1.80515 10.7253 2.02755 10.977 2.37917L11.0677 2.56549C11.1382 2.69992 11.2087 2.93791 11.2792 3.27915C11.3496 3.62038 11.395 3.99786 11.415 4.41137C11.4652 5.16649 11.4652 5.81288 11.415 6.35059C11.3646 6.88853 11.317 7.3073 11.2715 7.60724C11.2261 7.90718 11.1582 8.15023 11.0677 8.33634C10.977 8.52249 10.9166 8.63628 10.8864 8.67757C10.8562 8.71887 10.831 8.74489 10.811 8.75511C10.6802 8.80662 10.5441 8.83287 10.4033 8.83287C10.2622 8.83287 10.0912 8.76038 9.88993 8.61552C9.6887 8.47066 9.47986 8.27168 9.2634 8.01825C9.04694 7.76477 8.80282 7.41054 8.53094 6.95553C8.25927 6.50051 7.97739 5.96274 7.68547 5.34221L7.44394 4.89219C7.29295 4.60269 7.0867 4.18114 6.82497 3.62794C6.56309 3.07452 6.33161 2.53919 6.13038 2.02206C6.04994 1.80488 5.9291 1.63953 5.76807 1.52575L5.69249 1.47908C5.64225 1.43778 5.5616 1.39393 5.45097 1.3472C5.34017 1.30052 5.22457 1.26705 5.10367 1.24646L0.966527 1.27732C0.543764 1.27732 0.256916 1.37573 0.105876 1.57226L0.0454282 1.66523C0.0152309 1.71702 0 1.79972 0 1.91355C0 2.02734 0.0301974 2.16698 0.090645 2.33233C0.694592 3.79073 1.35137 5.19724 2.06098 6.55208C2.77059 7.90691 3.38723 8.99827 3.91053 9.82517C4.43393 10.6527 4.96744 11.4336 5.51104 12.1677C6.05465 12.9021 6.41448 13.3727 6.59053 13.5795C6.7668 13.7866 6.90525 13.9415 7.00589 14.0449L7.38344 14.4171C7.62502 14.6654 7.97977 14.9627 8.44786 15.3091C8.91605 15.6557 9.43437 15.997 10.0031 16.3334C10.5719 16.6692 11.2337 16.9433 11.9887 17.1553C12.7437 17.3675 13.4784 17.4526 14.1932 17.4115H15.9296C16.2818 17.3803 16.5486 17.2665 16.7299 17.0701L16.79 16.9924C16.8304 16.9306 16.8682 16.8347 16.9031 16.7057C16.9384 16.5764 16.956 16.434 16.956 16.2791C16.9457 15.8344 16.9786 15.4337 17.0539 15.0769C17.1292 14.7203 17.215 14.4514 17.3109 14.2703C17.4068 14.0893 17.515 13.9366 17.6354 13.8128C17.7561 13.6888 17.8421 13.6136 17.8925 13.5878C17.9427 13.5618 17.9827 13.5441 18.0129 13.5335C18.2545 13.4508 18.5388 13.5309 18.8663 13.7742C19.1935 14.0172 19.5004 14.3173 19.7874 14.674C20.0743 15.031 20.419 15.4315 20.8216 15.8761C21.2244 16.3209 21.5766 16.6516 21.8785 16.8691L22.1804 17.0552C22.382 17.1794 22.6437 17.2932 22.9659 17.3966C23.2875 17.5 23.5692 17.5258 23.8112 17.4742L27.6764 17.4122C28.0587 17.4122 28.3562 17.3472 28.5672 17.2181C28.7786 17.0889 28.9042 16.9465 28.9447 16.7915C28.9851 16.6365 28.9873 16.4605 28.9524 16.2638C28.9166 16.0676 28.8813 15.9304 28.8462 15.8529Z" fill="#00CC4F"/>
</svg>
